<?xml version="1.0" encoding="utf-8"?>
<!-- Generator: Adobe Illustrator 24.0.3, SVG Export Plug-In . SVG Version: 6.00 Build 0)  -->
<svg version="1.0" id="Layer_1" xmlns="http://www.w3.org/2000/svg" xmlns:xlink="http://www.w3.org/1999/xlink" x="0px" y="0px"
	 viewBox="0 0 100 100" enable-background="new 0 0 100 100" xml:space="preserve">
<path fill="#C4C4C4" d="M27,57.7H15.51v-15.4H27V57.7z M73,18.56h11.49v15.39H73V18.56z M73,66.05h11.49v15.4H73V66.05z
	 M30.52,35.27H12c-1.94,0-3.52,1.57-3.52,3.52v22.43c0,1.94,1.57,3.52,3.52,3.52h18.52c1.94,0,3.52-1.57,3.52-3.52v-7.7h12.91v20.23
	c0,1.94,1.57,3.52,3.52,3.52h15.51l0,7.7c0,1.94,1.57,3.52,3.52,3.52H88c1.94,0,3.52-1.57,3.52-3.52V62.54
	c0-1.94-1.57-3.52-3.52-3.52H69.48c-1.94,0-3.52,1.57-3.52,3.52v7.7h-12V30.68h12v6.79c0,1.94,1.57,3.52,3.52,3.52H88
	c1.94,0,3.52-1.57,3.52-3.52V15.04c0-1.94-1.57-3.52-3.52-3.52H69.48c-1.94,0-3.52,1.57-3.52,3.52v8.61H50.46
	c-1.94,0-3.52,1.57-3.52,3.52v19.32H34.03v-7.7C34.03,36.84,32.46,35.27,30.52,35.27L30.52,35.27z"/>
</svg>
