<svg id="Layer_1" data-name="Layer 1" xmlns="http://www.w3.org/2000/svg" viewBox="0 0 88.95 89.04"><defs><style>.cls-1{fill:#51a8dd;}.cls-2{fill:none;stroke:#51a8dd;stroke-miterlimit:10;}.cls-3{fill:#7ac689;}</style></defs><title>iconNXTWM-staying-on-track</title><path class="cls-1" d="M39.52,48.68A3,3,0,0,1,40.8,49l-2,2a1,1,0,0,0,1.44,1.41l2-2a3.06,3.06,0,0,1,.28,1.31,3,3,0,1,1-3-3m0-12a14.92,14.92,0,0,1,9.87,3.69L42.27,47.5a4.92,4.92,0,0,0-2.75-.81,5,5,0,1,0,5,5,4.92,4.92,0,0,0-.84-2.78l7.13-7.12a15,15,0,1,1-11.28-5.09m0-11a25.92,25.92,0,0,1,17.66,6.91L50.8,39a17.07,17.07,0,1,0,1.41,1.41L58.59,34a26,26,0,1,1-19.06-8.31Zm0-10a35.87,35.87,0,0,1,24.72,9.84l-5.66,5.66A28.07,28.07,0,1,0,60,32.59l5.69-5.66A36,36,0,1,1,39.52,15.68Zm39-10.78v6.78a1,1,0,0,0,1,1h6.75l-6.22,7H71.52V11.12Zm.91-3.25a1,1,0,0,0-.56.28l-9,8a1,1,0,0,0-.34.75v9.56l-3.87,3.88a37.08,37.08,0,1,0,1.44,1.41l3.84-3.84h9.59a1,1,0,0,0,.75-.34l8-9a1.06,1.06,0,0,0-.75-1.66h-8v-8a1,1,0,0,0-1.09-1" transform="translate(-1.02 -1.15)"/><path class="cls-2" d="M39.52,48.68A3,3,0,0,1,40.8,49l-2,2a1,1,0,0,0,1.44,1.41l2-2a3.06,3.06,0,0,1,.28,1.31,3,3,0,1,1-3-3Zm0-12a14.92,14.92,0,0,1,9.87,3.69L42.27,47.5a4.92,4.92,0,0,0-2.75-.81,5,5,0,1,0,5,5,4.92,4.92,0,0,0-.84-2.78l7.13-7.12a15,15,0,1,1-11.28-5.09Zm0-11a25.92,25.92,0,0,1,17.66,6.91L50.8,39a17.07,17.07,0,1,0,1.41,1.41L58.59,34a26,26,0,1,1-19.06-8.31Zm0-10a35.87,35.87,0,0,1,24.72,9.84l-5.66,5.66A28.07,28.07,0,1,0,60,32.59l5.69-5.66A36,36,0,1,1,39.52,15.68Zm39-10.78v6.78a1,1,0,0,0,1,1h6.75l-6.22,7H71.52V11.12Zm.91-3.25a1,1,0,0,0-.56.28l-9,8a1,1,0,0,0-.34.75v9.56l-3.87,3.88a37.08,37.08,0,1,0,1.44,1.41l3.84-3.84h9.59a1,1,0,0,0,.75-.34l8-9a1.06,1.06,0,0,0-.75-1.66h-8v-8A1,1,0,0,0,79.43,1.65Z" transform="translate(-1.02 -1.15)"/><circle class="cls-3" cx="38.51" cy="50.83" r="5.96"/><rect class="cls-1" x="44.16" y="36.79" width="2.79" height="17.59" transform="translate(44.55 -20.01) rotate(45)"/></svg>