<?xml version="1.0" encoding="utf-8"?>
<!-- Generator: Adobe Illustrator 24.0.3, SVG Export Plug-In . SVG Version: 6.00 Build 0)  -->
<svg version="1.0" id="Layer_1" xmlns="http://www.w3.org/2000/svg" xmlns:xlink="http://www.w3.org/1999/xlink" x="0px" y="0px"
	 viewBox="0 0 100 100" enable-background="new 0 0 100 100" xml:space="preserve">
<path fill-rule="evenodd" clip-rule="evenodd" fill="#C4C4C4" d="M75.21,54.18h-9v-27h9V54.18z M60,54.18h-9v-21h9V54.18z
	 M45.21,54.18h-9v-15h9V54.18z M30.21,54.18h-9v-9h9V54.18z M84,22.32H12v36h72V22.32z M87.09,16.32c0.77,0,1.51,0.31,2.05,0.86
	c0.55,0.55,0.86,1.29,0.86,2.06v42.14c0,0.77-0.31,1.52-0.86,2.07c-0.55,0.55-1.29,0.86-2.07,0.86h-32.4l4.95,12.35h11.51
	c0.29,0,0.56,0.11,0.76,0.31c0.21,0.21,0.32,0.49,0.32,0.76v0.85c0,0.29-0.11,0.56-0.32,0.76c-0.2,0.2-0.48,0.31-0.76,0.31H25.29
	c-0.29,0-0.56-0.11-0.76-0.31c-0.2-0.2-0.31-0.48-0.31-0.76v-0.85c0-0.27,0.11-0.55,0.31-0.76c0.2-0.2,0.48-0.31,0.76-0.31h11.52
	l4.94-12.35H8.94c-0.79,0-1.52-0.31-2.07-0.86C6.31,62.91,6,62.16,6,61.39V19.25c0-0.77,0.31-1.51,0.86-2.06
	c0.55-0.55,1.29-0.86,2.07-0.86h78.12H87.09z"/>
</svg>
