<svg id="Layer_1" data-name="Layer 1" xmlns="http://www.w3.org/2000/svg" viewBox="0 0 100 100"><defs><style>.cls-1{fill:#5cb89c;}.cls-2{fill:#78c688;}.cls-3{fill:none;stroke:#010101;stroke-miterlimit:10;stroke-width:1.11px;}.cls-4{fill:#fff;}</style></defs><title>icon-dedicated-advice</title><circle class="cls-1" cx="50" cy="50" r="50"/><path class="cls-2" d="M50,0A50,50,0,0,0,14.37,85.07l70.7-70.7A49.81,49.81,0,0,0,50,0Z" transform="translate(0 0)"/><path class="cls-3" d="M-907.65,484.44" transform="translate(0 0)"/><path class="cls-3" d="M-906.54,484.44" transform="translate(0 0)"/><path class="cls-3" d="M-716.65,507.44" transform="translate(0 0)"/><path class="cls-3" d="M-715.54,507.44" transform="translate(0 0)"/><path class="cls-3" d="M-681.65,482.44" transform="translate(0 0)"/><path class="cls-3" d="M-680.54,482.44" transform="translate(0 0)"/><path class="cls-4" d="M47.85,78.06a4.33,4.33,0,0,0,2.39.72H71.85a4.22,4.22,0,0,0,0-8.43h-13a5.73,5.73,0,0,1-.56,1,6,6,0,0,1-4.92,2.55,6.13,6.13,0,0,1-3.34-1L42.54,67.5l-2.7-2h-.17a.75.75,0,1,1,.79-1.27h0l3.74,2.47L51,71.39a6.15,6.15,0,0,0,1,.56,3.88,3.88,0,0,0,1.35.24,4,4,0,0,0,3.41-1.83,4.19,4.19,0,0,0-1.11-5.8L37.05,51.68A4.24,4.24,0,0,0,34.66,51H20.6V65h8.5Z" transform="translate(0 0)"/><path class="cls-4" d="M65.73,37.54a2.46,2.46,0,1,1-2.46-2.47h0A2.48,2.48,0,0,1,65.73,37.54Zm5.17-2.46a2.47,2.47,0,1,1-2.47,2.46h0A2.53,2.53,0,0,1,70.9,35.08ZM55.64,40a2.47,2.47,0,1,1,2.46-2.46h0A2.46,2.46,0,0,1,55.64,40Zm-8.5-2.46a16,16,0,0,0,4.21,10.89l-2.46,5.24H63.27A16.13,16.13,0,1,0,47.14,37.54Z" transform="translate(0 0)"/></svg>