<svg id="Layer_1" data-name="Layer 1" xmlns="http://www.w3.org/2000/svg" viewBox="0 0 100 100"><defs><style>.cls-1{fill:#ff9300;}.cls-2{fill:#ffb555;}.cls-3{fill:none;stroke:#010101;stroke-miterlimit:10;stroke-width:1.11px;}.cls-4{fill:#fff;}</style></defs><title>icon-competitive-pricing</title><circle class="cls-1" cx="50" cy="50" r="50"/><path class="cls-2" d="M50,0A50,50,0,0,0,14.37,85.07l70.7-70.7A49.81,49.81,0,0,0,50,0Z" transform="translate(0 0)"/><path class="cls-3" d="M-907.65,484.44" transform="translate(0 0)"/><path class="cls-3" d="M-906.54,484.44" transform="translate(0 0)"/><path class="cls-3" d="M-716.65,507.44" transform="translate(0 0)"/><path class="cls-3" d="M-715.54,507.44" transform="translate(0 0)"/><path class="cls-3" d="M-681.65,482.44" transform="translate(0 0)"/><path class="cls-3" d="M-680.54,482.44" transform="translate(0 0)"/><path class="cls-4" d="M52.74,63.14v4.2H48.26V63.4a11.83,11.83,0,0,1-5.46-1.83l-.63-.45,1.63-4.55,1.09.73a9.17,9.17,0,0,0,5,1.48c2.13,0,3.56-1.1,3.56-2.75,0-1.1-.45-2.31-3.72-3.63-3.45-1.36-7-3.33-7-7.62a7.18,7.18,0,0,1,5.82-7V33.66H53v3.8a10.86,10.86,0,0,1,4.5,1.43l.75.43-1.7,4.48-1-.6A8.28,8.28,0,0,0,51.13,42c-2.25,0-3.06,1.18-3.06,2.29s.6,2,4.15,3.44c3.07,1.26,6.61,3.3,6.61,8a7.59,7.59,0,0,1-6.09,7.38Zm-2.24-41A28.36,28.36,0,1,0,78.85,50.51h0A28.36,28.36,0,0,0,50.5,22.14Z" transform="translate(0 0)"/></svg>