<svg id="Layer_1" data-name="Layer 1" xmlns="http://www.w3.org/2000/svg" viewBox="0 0 59.19 66.77"><defs><style>.cls-1{fill:#0066a6;}.cls-2{fill:#7f8e97;}</style></defs><title>iconEmergencyFund</title><path class="cls-1" d="M5.44,15.86,15.92,5.29V15.86Zm49.62.59a1.28,1.28,0,0,0,.89-.37,1.27,1.27,0,0,0,.36-.88V2.26A1.25,1.25,0,0,0,55.06,1H17.17a1.24,1.24,0,0,0-.89.37h0l-15,15.14a1.21,1.21,0,0,0-.36.88V66.54a1.21,1.21,0,0,0,.36.88,1.22,1.22,0,0,0,.89.37H55.06a1.25,1.25,0,0,0,1.25-1.25V46.8a1.25,1.25,0,0,0-2.5,0V65.29H3.4V18.36H17.17a1.26,1.26,0,0,0,1.25-1.25V3.51H53.81V15.2a1.26,1.26,0,0,0,1.25,1.25Z" transform="translate(-0.9 -1.01)"/><path class="cls-1" d="M40.22,25.27H13.76a1.25,1.25,0,0,0,0,2.5H40.22a1.25,1.25,0,0,0,0-2.5Z" transform="translate(-0.9 -1.01)"/><path class="cls-1" d="M40.22,34.67H13.76a1.25,1.25,0,1,0,0,2.5H40.22a1.25,1.25,0,0,0,0-2.5Z" transform="translate(-0.9 -1.01)"/><path class="cls-1" d="M40.22,44.08H13.76a1.25,1.25,0,1,0,0,2.5H40.22a1.25,1.25,0,0,0,0-2.5Z" transform="translate(-0.9 -1.01)"/><path class="cls-2" d="M60.09,34c0-2.14-1.53-3.69-3.69-4.46S53,28.37,53,26.66a2.25,2.25,0,0,1,.63-1.59,2.23,2.23,0,0,1,1.56-.67,2.32,2.32,0,0,1,2.22,2.23h2.33a4.09,4.09,0,0,0-3.5-4.15V20.32H54.13v2.16a4.38,4.38,0,0,0-3.69,4.41A4.17,4.17,0,0,0,53.8,31c1.83.59,3.75,1.2,3.75,3.19a2.39,2.39,0,0,1-.7,1.73,2.48,2.48,0,0,1-1.71.72,2.61,2.61,0,0,1-2.56-2.61H50a4.62,4.62,0,0,0,4.09,4.55v2.3h2.06v-2.3A4.82,4.82,0,0,0,60.09,34Z" transform="translate(-0.9 -1.01)"/></svg>