<?xml version="1.0" encoding="utf-8"?>
<!-- Generator: Adobe Illustrator 24.0.3, SVG Export Plug-In . SVG Version: 6.00 Build 0)  -->
<svg version="1.0" id="Layer_1" xmlns="http://www.w3.org/2000/svg" xmlns:xlink="http://www.w3.org/1999/xlink" x="0px" y="0px"
	 viewBox="0 0 100 100" enable-background="new 0 0 100 100" xml:space="preserve">
<path fill="#C4C4C4" d="M50,41.17c-3.27,0-6.23-1.97-7.48-5c-1.25-3.03-0.55-6.51,1.76-8.82c2.32-2.31,5.8-3,8.83-1.74
	c3.02,1.26,4.99,4.21,4.98,7.49C58.08,37.55,54.46,41.16,50,41.17L50,41.17z M50,18.75c-3.8,0-7.45,1.51-10.14,4.2
	c-2.69,2.69-4.2,6.34-4.2,10.14c0,3.81,1.51,7.45,4.2,10.14c2.69,2.69,6.34,4.2,10.14,4.2s7.45-1.51,10.14-4.2
	c2.69-2.69,4.2-6.34,4.2-10.14c0-3.8-1.52-7.45-4.21-10.14C57.45,20.27,53.8,18.75,50,18.75L50,18.75z M66.05,75H33.95v-8.86
	c0-2.98,4.84-8.84,16.05-8.84s16.05,5.86,16.05,8.84V75z M50,51.05c-13.77,0-22.3,7.81-22.3,15.09v11.98c0,0.83,0.33,1.62,0.91,2.21
	c0.59,0.59,1.38,0.91,2.21,0.91h38.34c0.83,0,1.62-0.33,2.21-0.91c0.59-0.59,0.91-1.38,0.91-2.21V66.14
	C72.3,58.88,63.77,51.05,50,51.05L50,51.05z M100,59.16v9c0,0.83-0.33,1.62-0.91,2.21c-0.59,0.59-1.38,0.91-2.21,0.91H75.42v-5.14
	c0-0.36,0-0.73-0.08-1.11h18.41v-5.88c0-2.11-3.66-5.88-10.94-5.88c-5.75,0-9.2,2.34-10.42,4.38c-1.26-1.7-2.78-3.19-4.5-4.42
	c2.77-3.5,7.97-6.25,14.92-6.25C93.42,47.03,100,53.33,100,59.16L100,59.16z M0,68.16v-9c0-5.83,6.58-12.12,17.19-12.12
	c6.95,0,12.16,2.7,14.92,6.25c-1.72,1.23-3.24,2.73-4.5,4.42c-1.22-2.03-4.69-4.38-10.42-4.38c-7.28,0-10.94,3.77-10.94,5.88v5.87
	h18.41v1.11v5.14H3.12c-0.84,0-1.64-0.34-2.23-0.93C0.31,69.8-0.01,68.99,0,68.16L0,68.16z M76.94,31.25
	c-0.02-2.38,1.39-4.54,3.58-5.47c2.2-0.93,4.73-0.44,6.43,1.23c1.69,1.68,2.21,4.21,1.3,6.41c-0.91,2.2-3.05,3.64-5.43,3.64
	C79.59,37.06,76.97,34.47,76.94,31.25z M94.94,31.25c0.02-4.91-2.91-9.35-7.44-11.25c-4.53-1.9-9.75-0.88-13.23,2.59
	c-3.48,3.46-4.53,8.68-2.66,13.22c1.87,4.54,6.3,7.5,11.21,7.5C89.48,43.31,94.89,37.92,94.94,31.25L94.94,31.25z M23.06,31.25
	c-0.02,2.37-1.47,4.49-3.67,5.38c-2.2,0.89-4.71,0.37-6.38-1.31c-1.67-1.69-2.16-4.21-1.25-6.39c0.91-2.19,3.05-3.61,5.42-3.61
	c1.57,0,3.07,0.63,4.17,1.75C22.46,28.18,23.07,29.68,23.06,31.25z M5.06,31.25c0.02,4.9,3,9.3,7.53,11.16
	c4.54,1.86,9.74,0.8,13.19-2.67c3.46-3.47,4.48-8.68,2.6-13.21c-1.88-4.52-6.3-7.47-11.19-7.47c-3.23,0-6.32,1.29-8.59,3.58
	C6.32,24.93,5.05,28.02,5.06,31.25L5.06,31.25z"/>
</svg>
