<?xml version="1.0" encoding="utf-8"?>
<!-- Generator: Adobe Illustrator 24.0.3, SVG Export Plug-In . SVG Version: 6.00 Build 0)  -->
<svg version="1.0" id="Layer_1" xmlns="http://www.w3.org/2000/svg" xmlns:xlink="http://www.w3.org/1999/xlink" x="0px" y="0px"
	 viewBox="0 0 100 100" enable-background="new 0 0 100 100" xml:space="preserve">
<path fill="#C4C4C4" d="M43.5,19.1c-0.7-0.7-1.8-0.7-2.5,0l-9.2,9.2l-4.2-4.2c-0.7-0.7-1.8-0.7-2.5,0l-1.7,1.7
	c-0.6,0.6-0.7,1.7-0.1,2.4l7.2,8.9c0.7,0.9,2,0.9,2.7,0l12-13.9c0.6-0.7,0.6-1.7-0.1-2.4L43.5,19.1z"/>
<path fill="#C4C4C4" d="M76.1,26.4H50.8c-0.6,0-1.1,0.5-1.1,1.1v4.4c0,0.6,0.5,1.1,1.1,1.1H76c0.6,0,1.1-0.5,1.1-1.1v-4.4
	C77.1,26.8,76.7,26.4,76.1,26.4L76.1,26.4z"/>
<path fill="#C4C4C4" d="M43.5,41c-0.7-0.7-1.8-0.7-2.5,0l-9.2,9.2L27.5,46c-0.7-0.7-1.8-0.7-2.5,0l-1.7,1.7
	c-0.6,0.6-0.7,1.7-0.1,2.4l7.2,8.9c0.7,0.9,2,0.9,2.7,0l12-13.9c0.6-0.7,0.6-1.7-0.1-2.4L43.5,41z"/>
<path fill="#C4C4C4" d="M76.1,48.2H50.8c-0.6,0-1.1,0.5-1.1,1.1v4.4c0,0.6,0.5,1.1,1.1,1.1H76c0.6,0,1.1-0.5,1.1-1.1v-4.4
	C77.1,48.7,76.7,48.2,76.1,48.2L76.1,48.2z"/>
<path fill="#C4C4C4" d="M43.5,62.8c-0.7-0.7-1.8-0.7-2.5,0L31.8,72l-4.2-4.2c-0.7-0.7-1.8-0.7-2.5,0l-1.7,1.7
	c-0.6,0.6-0.7,1.7-0.1,2.4l7.2,8.9c0.7,0.9,2,0.9,2.7,0l12-13.9c0.6-0.7,0.6-1.7-0.1-2.4L43.5,62.8z"/>
<path fill="#C4C4C4" d="M76.1,70.1H50.8c-0.6,0-1.1,0.5-1.1,1.1v4.4c0,0.6,0.5,1.1,1.1,1.1H76c0.6,0,1.1-0.5,1.1-1.1v-4.4
	C77.1,70.6,76.7,70.1,76.1,70.1L76.1,70.1z"/>
<path fill="#C4C4C4" d="M85.7,85.3c0,3-2.5,5.5-5.5,5.5H19.7c-3,0-5.5-2.5-5.5-5.5V14.7c0-3,2.5-5.5,5.5-5.5h60.5
	c3,0,5.5,2.5,5.5,5.5V85.3z M80.3,2.5H19.7C13,2.5,7.5,8,7.5,14.7v70.6c0,6.7,5.5,12.2,12.2,12.2h60.5c6.7,0,12.2-5.5,12.2-12.2
	V14.7C92.5,8,87,2.5,80.3,2.5L80.3,2.5z"/>
</svg>
