<svg id="Layer_1" data-name="Layer 1" xmlns="http://www.w3.org/2000/svg" viewBox="0 0 51.2 83.5"><defs><style>.cls-1{fill:#0066a6;stroke:#0066a6;stroke-miterlimit:10;stroke-width:1.5px;}.cls-2{fill:#7f8e97;}</style></defs><title>iconPhone</title><path class="cls-1" d="M7.73,81.62a4.37,4.37,0,0,1-4.4-4.4h0v-5.1H49v5.1a4.35,4.35,0,0,1-4.3,4.4h-37Zm37-78A4.37,4.37,0,0,1,49.13,8h0v5.1H3.33V8a4.44,4.44,0,0,1,4.4-4.4ZM49,70.12H3.33v-55H49Zm-2.5-68.2a5.66,5.66,0,0,0-1.8-.3h-37a6.36,6.36,0,0,0-6.4,6.3h0v69.2a6.38,6.38,0,0,0,6.3,6.5h37a6.38,6.38,0,0,0,6.4-6.4h0V8A6.33,6.33,0,0,0,46.53,1.92Z" transform="translate(-0.58 -0.87)"/><path class="cls-2" d="M26.23,78.72a1.9,1.9,0,1,1,1.9-1.9,2,2,0,0,1-1.9,1.9Zm0-5.7a3.9,3.9,0,0,0-3.9,3.9,3.9,3.9,0,1,0,7.8,0,3.9,3.9,0,0,0-3.9-3.9Z" transform="translate(-0.58 -0.87)"/><path class="cls-2" d="M15.73,9.32h15.5a.94.94,0,0,0,1-1,.94.94,0,0,0-1-1H15.73a.94.94,0,0,0-1,1A1,1,0,0,0,15.73,9.32Z" transform="translate(-0.58 -0.87)"/><path class="cls-2" d="M36.63,9.42a.6.6,0,0,0,.4-.1c.1-.1.2-.1.3-.2a1,1,0,0,0,0-1.4c-.1-.1-.2-.2-.3-.2a.91.91,0,0,0-1.1.2c-.1.1-.2.2-.2.3s-.1.2-.1.4a1.17,1.17,0,0,0,1,1Z" transform="translate(-0.58 -0.87)"/></svg>