<svg id="Layer_1" data-name="Layer 1" xmlns="http://www.w3.org/2000/svg" viewBox="0 0 96.88 96.88"><defs><style>.cls-1{fill:#51a8dd;}.cls-2{fill:#78c688;}</style></defs><title>iconNXTWM-additional-investments</title><path class="cls-1" d="M78.12,57.81A20.28,20.28,0,0,0,64.34,93a45.16,45.16,0,0,1-12.77,2.28V51.56H95.28A45.15,45.15,0,0,1,93,64.33a20.24,20.24,0,0,0-14.87-6.52ZM4.73,51.56H48.44V95.27A45.36,45.36,0,0,1,4.73,51.56Zm12.46-9.37H45.31V26.56H39.06V20.31H32.81V14.06H26.56V11.24a45.1,45.1,0,0,1,21.88-6.5V48.44H4.75a44.77,44.77,0,0,1,6.19-21.35v15.1ZM14.06,4.69h3.13V39.06H14.06Zm9.38,6.25V39.06H20.31V10.94Zm6.25,9.38V39.06H26.56V17.19h3.13Zm6.25,6.25v12.5H32.81V23.44h3.13Zm3.13,3.13h3.13v9.37H39.06ZM51.56,18.1V4.73A45,45,0,0,1,63.05,6.61Zm21-2.48,3-3a45.66,45.66,0,0,1,5.35,4.3L51.56,46.23V36.58l19-19-2.21-2.21L51.56,32.16V22.52L66.34,7.75a44.91,44.91,0,0,1,6.5,3.14l-2.52,2.52ZM87.4,24.45,69.95,41.91l2.21,2.21,17-17a45.31,45.31,0,0,1,3.14,6.5L77.48,48.44H67.83l2-2-2.21-2.21-4.23,4.23H53.77L83.1,19.11a45.65,45.65,0,0,1,4.3,5.35Zm7.88,24H81.9L93.39,36.95a45.21,45.21,0,0,1,1.88,11.49ZM98.44,50A48.41,48.41,0,0,0,26.23,7.81H20.31V1.56H10.94V21.39A48,48,0,0,0,1.56,50,48.46,48.46,0,0,0,67.27,95.27,20.25,20.25,0,0,0,91.4,93.51l-2-2.37a17.19,17.19,0,1,1,6-13,17,17,0,0,1-3.79,10.77l2.44,2a20.38,20.38,0,0,0,4.48-12.73,20.16,20.16,0,0,0-3.18-10.86A48.25,48.25,0,0,0,98.44,50Z" transform="translate(-1.56 -1.56)"/><rect class="cls-1" x="17.99" y="67.19" width="26.52" height="3.13" transform="translate(-41.02 40.67) rotate(-45)"/><path class="cls-1" d="M37.5,76.56A1.56,1.56,0,1,1,39.06,75,1.56,1.56,0,0,1,37.5,76.56Zm0-6.25A4.69,4.69,0,1,0,42.19,75,4.69,4.69,0,0,0,37.5,70.31Z" transform="translate(-1.56 -1.56)"/><path class="cls-1" d="M25,60.94a1.56,1.56,0,1,1-1.56,1.56A1.56,1.56,0,0,1,25,60.94Zm0,6.25a4.69,4.69,0,1,0-4.69-4.69A4.69,4.69,0,0,0,25,67.19Z" transform="translate(-1.56 -1.56)"/><rect class="cls-1" x="87.5" y="75" width="3.13" height="3.13"/><rect class="cls-1" x="62.5" y="75" width="3.13" height="3.13"/><path class="cls-2" d="M78.13,70.31a3.13,3.13,0,0,1,3.13,3.13h3.13a6.24,6.24,0,0,0-4.69-6V64.06H76.56v3.35a6.24,6.24,0,0,0,1.56,12.28A3.13,3.13,0,1,1,75,82.81H71.88a6.24,6.24,0,0,0,4.69,6v3.35h3.13V88.84a6.24,6.24,0,0,0-1.56-12.28,3.13,3.13,0,0,1,0-6.25Z" transform="translate(-1.56 -1.56)"/></svg>