<svg id="Layer_1" data-name="Layer 1" xmlns="http://www.w3.org/2000/svg" viewBox="0 0 84.7 71.88"><defs><style>.cls-1{fill:#0066a6;}.cls-2{fill:#a9c554;}</style></defs><title>iconChat</title><path class="cls-1" d="M56.75,57.15H44.25a1.56,1.56,0,0,0-1.56,1.56v8.73L32.86,57.6a1.55,1.55,0,0,0-1.11-.45A26.56,26.56,0,1,1,31.75,4h25a26.56,26.56,0,1,1,0,53.12ZM56.75.9h-25a29.69,29.69,0,0,0-.66,59.38l12,12a1.55,1.55,0,0,0,1.11.45,1.35,1.35,0,0,0,.59-.12,1.57,1.57,0,0,0,1-1.44V60.27H56.75a29.69,29.69,0,1,0,0-59.38Z" transform="translate(-1.74 -0.89)"/><path class="cls-2" d="M72.38,29H69.25a1.56,1.56,0,1,0,0,3.13h3.13a1.56,1.56,0,0,0,0-3.13Z" transform="translate(-1.74 -0.89)"/><path class="cls-2" d="M59.78,29H47.38a1.56,1.56,0,1,0,0,3.13H59.78a1.56,1.56,0,1,0,0-3.13Z" transform="translate(-1.74 -0.89)"/><path class="cls-2" d="M38.25,29H14.57a1.56,1.56,0,1,0,0,3.13H38.25a1.56,1.56,0,0,0,0-3.13Z" transform="translate(-1.74 -0.89)"/></svg>