<svg id="Layer_1" data-name="Layer 1" xmlns="http://www.w3.org/2000/svg" viewBox="0 0 91.38 90.43"><defs><style>.cls-1{fill:#51a8dd;}.cls-2{fill:#78c688;}</style></defs><title>iconNXTWM-financial-deepdive</title><path class="cls-1" d="M54.49,66.27a25.24,25.24,0,0,1-8.65,3H60.58a14.16,14.16,0,0,1-1.46-1.47,2.46,2.46,0,0,1-.34-1.53Zm-44.59,0a1.5,1.5,0,1,0,0,3H38.09a25.22,25.22,0,0,1-8.57-3ZM65.38,64,89.57,86.5a3.75,3.75,0,0,1-.7,1l-.27.29a3.84,3.84,0,0,1-1,.77L63.43,66.11a3.75,3.75,0,0,1,.7-1l.27-.29A3.84,3.84,0,0,1,65.38,64Zm.31-11.09a26,26,0,0,1-1.28,3h6.75a1.5,1.5,0,1,0,0-3Zm-55.78,0a1.5,1.5,0,1,0,0,3H19.6a25.32,25.32,0,0,1-1.32-3ZM66.74,39.6a25,25,0,0,1,.39,3h4a1.5,1.5,0,1,0,0-3Zm-56.83,0a1.5,1.5,0,1,0,0,3h6.91a25,25,0,0,1,.39-3ZM59.55,26.27a25.69,25.69,0,0,1,2.64,3h9a1.5,1.5,0,1,0,0-3Zm-49.64,0a1.5,1.5,0,1,0,0,3H21.79a25.64,25.64,0,0,1,1.7-2.09q.46-.47.94-.91H9.91ZM41.23,24a20.37,20.37,0,1,1-14.16,6.5A20.29,20.29,0,0,1,41.23,24Zm1-3a23.35,23.35,0,1,0,15.91,40.2l2.95,2.9a5.47,5.47,0,0,0-.54,1.07,3.2,3.2,0,0,0-.23,1.23A2.18,2.18,0,0,0,61,67.93L86,91.16a2.16,2.16,0,0,0,1.56.54,3.15,3.15,0,0,0,1.22-.32,6.47,6.47,0,0,0,2-1.54l.27-.29a6.53,6.53,0,0,0,1.38-2.14,3.2,3.2,0,0,0,.23-1.23A2.17,2.17,0,0,0,92,84.68L67,61.44a2.16,2.16,0,0,0-1.55-.54,3.15,3.15,0,0,0-1.22.32,5.57,5.57,0,0,0-1.11.69L60.19,59A23.34,23.34,0,0,0,42.25,21ZM21.41,12a1.5,1.5,0,1,0,0,3H59.66a1.5,1.5,0,1,0,0-3ZM8.57,1.29A7.27,7.27,0,0,0,1.32,8.54V72.47a7.27,7.27,0,0,0,7.25,7.25H71.14l-3.1-3H8.57a4.21,4.21,0,0,1-4.25-4.25V8.54A4.21,4.21,0,0,1,8.57,4.29H72.5a4.21,4.21,0,0,1,4.25,4.25V68.28l3,2.82V8.53A7.27,7.27,0,0,0,72.5,1.28H8.57Z" transform="translate(-1.32 -1.28)"/><path class="cls-2" d="M55.16,35.37a1.48,1.48,0,0,0-1,.43L36.88,52.41l-6.21-8.24h0a1.5,1.5,0,1,0-2.4,1.8l7.22,9.59h0a1.5,1.5,0,0,0,2.24.18L56.2,38a1.5,1.5,0,0,0-1-2.59Z" transform="translate(-1.32 -1.28)"/></svg>