<svg id="Layer_1" data-name="Layer 1" xmlns="http://www.w3.org/2000/svg" viewBox="0 0 100 100"><defs><style>.cls-1{fill:#b293ca;}.cls-2{fill:#d0b6e5;}.cls-3{fill:none;stroke:#010101;stroke-miterlimit:10;stroke-width:1.11px;}.cls-4{fill:#fff;}</style></defs><title>icon-personalized-service</title><circle class="cls-1" cx="50" cy="50" r="50"/><path class="cls-2" d="M50,0A50,50,0,0,0,14.37,85.07l70.7-70.7A49.81,49.81,0,0,0,50,0Z" transform="translate(0 0)"/><path class="cls-3" d="M-907.65,484.44" transform="translate(0 0)"/><path class="cls-3" d="M-906.54,484.44" transform="translate(0 0)"/><path class="cls-3" d="M-716.65,507.44" transform="translate(0 0)"/><path class="cls-3" d="M-715.54,507.44" transform="translate(0 0)"/><path class="cls-3" d="M-681.65,482.44" transform="translate(0 0)"/><path class="cls-3" d="M-680.54,482.44" transform="translate(0 0)"/><path class="cls-4" d="M33.28,34.91A6.25,6.25,0,1,1,27,28.66a6.25,6.25,0,0,1,6.28,6.25" transform="translate(0 0)"/><path class="cls-4" d="M79.12,34.91a6.25,6.25,0,1,1-6.25-6.25h0a6.27,6.27,0,0,1,6.25,6.25" transform="translate(0 0)"/><path class="cls-4" d="M72.87,45.33a11.48,11.48,0,0,0-5.21,1.45L50,57.2,32.24,46.78A11.6,11.6,0,0,0,27,45.33,10.32,10.32,0,0,0,16.61,55.58V72.41H37.44V59.49l10.42,6.25c.42.21.63.42,1,.42s.63.21,1,.21a1.92,1.92,0,0,0,1-.21,1.88,1.88,0,0,0,1-.42l10.42-6.25V72.41h21V55.74A10.32,10.32,0,0,0,73.07,45.33Z" transform="translate(0 0)"/></svg>