<svg id="Layer_1" data-name="Layer 1" xmlns="http://www.w3.org/2000/svg" xmlns:xlink="http://www.w3.org/1999/xlink" viewBox="0 0 93.75 93.75"><defs><style>.cls-1{fill:none;}.cls-2{clip-path:url(#clip-path);}.cls-3{fill:#51a9de;}.cls-4{fill:#78c688;}</style><clipPath id="clip-path" transform="translate(0 0)"><rect class="cls-1" width="93.75" height="93.75"/></clipPath></defs><title>iconNXTWM-tax-efficiency</title><g class="cls-2"><path class="cls-3" d="M14.06,5.33v8.73H5.34ZM78.13,32.81H10.94a1.56,1.56,0,0,0-1.56,1.56V75a1.56,1.56,0,0,0,1.56,1.56H45.31V90.62H3.12V17.19h12.5a1.56,1.56,0,0,0,1.56-1.56V3.12H78.13Zm12.5,57.81H48.44V35.94H90.63ZM21.87,45.31H45.31V73.44H21.87Zm-3.12-3.12H12.5V35.94h6.25Zm26.56,0H21.87V35.94H45.31ZM12.5,45.31h6.25V73.44H12.5ZM1.56,93.75H92.19a1.56,1.56,0,0,0,1.56-1.56V34.37a1.56,1.56,0,0,0-1.56-1.56H81.25V1.56A1.56,1.56,0,0,0,79.69,0H15.62l-.09,0a1.52,1.52,0,0,0-.42.08L15,.15a1.51,1.51,0,0,0-.46.31L.46,14.52a1.49,1.49,0,0,0-.36.61,1.41,1.41,0,0,0-.08.4.85.85,0,0,0,0,.1V92.19a1.56,1.56,0,0,0,1.56,1.56Z" transform="translate(0 0)"/><path class="cls-3" d="M54.69,42.19H84.38v9.38H54.69Zm-3.12-1.56v12.5a1.56,1.56,0,0,0,1.56,1.56H85.94a1.56,1.56,0,0,0,1.56-1.56V40.62a1.56,1.56,0,0,0-1.56-1.56H53.12a1.56,1.56,0,0,0-1.56,1.56" transform="translate(0 0)"/><rect class="cls-4" x="55" y="71.1" width="29.07" height="3.12" transform="translate(-30.18 85.76) rotate(-53.75)"/><path class="cls-4" d="M64.06,64.06a1.56,1.56,0,1,1-1.56,1.56,1.57,1.57,0,0,1,1.56-1.56m0,6.25a4.69,4.69,0,1,0-4.69-4.69,4.69,4.69,0,0,0,4.69,4.69" transform="translate(0 0)"/><path class="cls-4" d="M75,81.25a1.56,1.56,0,1,1,1.56-1.56A1.57,1.57,0,0,1,75,81.25M75,75a4.69,4.69,0,1,0,4.69,4.69A4.69,4.69,0,0,0,75,75" transform="translate(0 0)"/><rect class="cls-3" x="25" y="7.81" width="39.06" height="3.13"/><rect class="cls-3" x="20.31" y="15.63" width="48.44" height="3.13"/></g></svg>