<?xml version="1.0" encoding="utf-8"?>
<!-- Generator: Adobe Illustrator 24.0.3, SVG Export Plug-In . SVG Version: 6.00 Build 0)  -->
<svg version="1.0" id="Layer_1" xmlns="http://www.w3.org/2000/svg" xmlns:xlink="http://www.w3.org/1999/xlink" x="0px" y="0px"
	 viewBox="0 0 100 100" enable-background="new 0 0 100 100" xml:space="preserve">
<path fill-rule="evenodd" clip-rule="evenodd" fill="#C4C4C4" d="M57.92,82.14c2.03,0,3.7,1.67,3.7,3.7s-1.67,3.7-3.7,3.7l-54.91,0
	c-0.3,0-0.97-0.04-1.65-0.45c-0.44-0.27-0.71-0.61-0.87-0.82C0.33,88,0.13,87.61,0.04,87.1C0,86.88,0,86.68,0,86.5
	c0.32-3.09,1.12-7.5,3.27-12.37c1.8-4.09,3.99-7.21,5.79-9.4c1.71-2.13,4.14-4.7,7.43-7.17c4.27-3.21,8.4-5.03,11.42-6.08
	c0.18-0.07,0.5-0.18,0.92-0.16c0.57,0.03,0.97,0.29,1.13,0.41c1.64,1.1,5.87,3.61,11.85,3.72c5.73,0.11,9.91-2.05,11.62-3.05
	c1.76-1.02,4.04-0.41,5.05,1.35c1.02,1.75,0.41,4.04-1.35,5.05c-2.3,1.36-7.64,4.08-14.95,4.07c-6.7-0.01-11.68-2.31-14.01-3.59
	c-2.82,1.21-8.06,3.92-12.72,9.41c-4.41,5.19-6.24,10.46-7.04,13.4C24.91,82.1,41.41,82.12,57.92,82.14L57.92,82.14z M94.12,65.32
	c1.23,1.47,1.86,3.46,1.86,5.97c0,3.05-1.05,5.62-3.18,7.72c-2.11,2.09-4.96,3.41-8.54,3.94v3.61c0,0.88-0.27,1.59-0.8,2.14
	c-0.53,0.55-1.23,0.83-2.11,0.83s-1.59-0.27-2.12-0.83c-0.54-0.55-0.79-1.27-0.79-2.14v-3.49c-2.17-0.19-4.29-0.64-6.34-1.37
	c-2.06-0.73-3.83-1.68-5.32-2.86c-0.5-0.35-0.84-0.72-1.02-1.14c-0.2-0.42-0.29-0.93-0.29-1.54c0-0.8,0.24-1.5,0.71-2.11
	c0.48-0.61,1.02-0.91,1.63-0.91c0.38,0,0.73,0.06,1.05,0.2c0.34,0.14,0.76,0.35,1.29,0.66c1.76,1.14,3.48,1.98,5.18,2.51
	c1.7,0.54,3.48,0.8,5.34,0.8c2.55,0,4.52-0.49,5.92-1.48c1.39-1,2.09-2.43,2.09-4.29c0-1.1-0.38-2-1.15-2.69
	c-0.76-0.68-1.71-1.23-2.86-1.62c-1.14-0.4-2.75-0.86-4.8-1.4c-2.86-0.72-5.19-1.46-6.98-2.2c-1.79-0.74-3.33-1.87-4.62-3.4
	c-1.3-1.52-1.95-3.58-1.95-6.17c0-3.09,1.1-5.72,3.32-7.89c2.21-2.17,5.1-3.52,8.68-4.06v-3.6c0-0.87,0.27-1.59,0.8-2.14
	c0.54-0.55,1.23-0.83,2.12-0.83c0.88,0,1.58,0.27,2.11,0.83c0.54,0.55,0.8,1.27,0.8,2.14v3.54c3.85,0.5,7.16,1.89,9.95,4.18
	c0.91,0.68,1.37,1.58,1.37,2.69c0,0.8-0.24,1.5-0.71,2.11c-0.48,0.61-1.04,0.91-1.69,0.91c-0.34,0-0.68-0.06-1-0.17
	c-0.32-0.11-0.75-0.35-1.29-0.69c-1.56-1.1-3.04-1.93-4.43-2.48c-1.39-0.55-3.04-0.83-4.94-0.83c-2.37,0-4.25,0.52-5.66,1.57
	c-1.41,1.05-2.11,2.48-2.11,4.31c0,1.26,0.4,2.27,1.2,3.06c0.8,0.78,1.81,1.38,3.03,1.8c1.22,0.42,2.88,0.9,4.97,1.43
	c2.78,0.69,5.04,1.39,6.8,2.12C91.38,62.76,92.88,63.86,94.12,65.32L94.12,65.32z M42.17,6.52c5.08,0,10.16,1.75,13.86,5.24
	c6.67,6.3,5.92,15.51,5.79,16.79c-0.67,6.89-4.63,11.32-6.47,13.32c-2.51,2.73-6.8,7.39-13.09,7.42h-0.07
	c-6.35,0-10.72-4.73-13.2-7.42c-1.83-1.98-5.8-6.41-6.48-13.32c-0.12-1.28-0.87-10.49,5.79-16.79C32,8.27,37.08,6.52,42.17,6.52
	L42.17,6.52z M54.47,27.83c-0.45,4.57-3.23,7.59-4.56,9.04c-1.95,2.12-4.61,5.02-7.72,5.03c-2.88,0-5.32-2.38-7.77-5.04
	c-1.33-1.44-4.11-4.45-4.55-9.03c-0.07-0.69-0.54-6.86,3.5-10.69c2.17-2.05,5.38-3.23,8.79-3.23c3.41,0,6.62,1.18,8.79,3.23
	C55.01,20.97,54.54,27.14,54.47,27.83"/>
</svg>
